# Blender v2.74 (sub 0) OBJ File: ''
# www.blender.org
v 0.500000 0.000000 -0.500000
v 0.500000 0.000000 0.500000
v -0.500000 0.000000 0.500000
v -0.500000 0.000000 -0.500000
v 0.500000 0.748470 -0.500000
v 0.500000 0.748470 0.500000
v -0.500000 0.748470 0.500000
v -0.500000 0.748470 -0.500000
v 0.000000 0.000000 -0.500000
v 0.000000 0.000000 0.500000
v 0.000000 0.748470 -0.500000
v -0.000000 0.748470 0.500000
v 0.500000 0.928134 -0.500000
v 0.500000 0.854779 0.500000
v 0.000000 0.928134 -0.500000
v -0.000000 0.854779 0.500000
v 0.500000 0.000000 -0.154506
v -0.500000 0.000000 -0.154507
v 0.500000 0.748470 -0.154506
v -0.500000 0.748470 -0.154507
v -0.000000 0.748470 -0.154506
v 0.000000 0.000000 -0.154507
v 0.500000 0.854779 -0.154506
v -0.000000 0.854779 -0.154506
v 0.000000 0.816979 -0.500000
v -0.500000 0.816979 -0.500000
v -0.500000 0.816979 -0.154507
v -0.000000 0.816979 -0.154506
v 0.500000 0.947375 -0.500000
v 0.000000 0.947375 -0.500000
v 0.500000 0.947375 -0.154506
v -0.000000 0.947375 -0.154506
vt 0.123296 0.188359
vt 0.356868 0.188359
vt 0.356868 0.376718
vt 0.123296 0.376718
vt 0.516522 0.623282
vt 0.338088 0.623282
vt 0.338088 0.376718
vt 0.516522 0.376718
vt 0.694956 0.246564
vt 0.427851 0.246564
vt 0.427851 0.000000
vt 0.694956 0.000000
vt 0.694956 0.188359
vt 0.962061 0.188359
vt 0.962062 0.376718
vt 0.694956 0.376718
vt 0.694956 0.623282
vt 0.962061 0.623282
vt 0.962061 0.753436
vt 0.694956 0.753436
vt 0.267105 0.565077
vt 0.000000 0.565077
vt 0.000000 0.376718
vt 0.267105 0.376718
vt 0.267105 0.753436
vt 0.000000 0.753436
vt 0.962061 0.000000
vt 0.338088 0.869846
vt 0.376027 0.623282
vt 0.376027 0.869846
vt 0.123296 0.000000
vt 0.356868 0.000000
vt 1.000000 0.000000
vt 1.000000 0.188359
vt 0.331222 0.565077
vt 0.331222 0.753436
vt 0.427851 0.376718
vt 0.363735 0.376718
vt 0.389913 0.246564
vt 0.389913 0.000000
vt 0.655662 0.811641
vt 0.655662 0.623282
vt 0.688707 0.623282
vt 0.688707 0.811641
vt 0.000000 0.000000
vt 0.000000 0.188359
vt 0.532367 0.623282
vt 0.532367 0.811641
vt 0.409071 0.811641
vt 0.409071 0.623282
vt 0.000000 0.941795
vt 0.024449 0.753436
vt 0.024449 0.941795
vt 0.402205 1.000000
vt 0.409071 0.869846
vt 0.409071 1.000000
vt 0.986510 0.623282
vt 0.986510 0.753436
vt 0.291554 0.376718
vt 0.291554 0.565077
vt 0.338088 1.000000
vt 0.362537 1.000000
vt 0.362537 0.869846
vt 0.356868 0.246564
vt 0.338088 0.565077
vt 0.338088 0.753436
vn 0.000000 -1.000000 0.000000
vn 0.000000 1.000000 0.000000
vn 1.000000 0.000000 0.000000
vn -0.000000 -0.000000 1.000000
vn -1.000000 -0.000000 -0.000000
vn 0.000000 0.000000 -1.000000
s off
f 22/1/1 10/2/1 3/3/1 18/4/1
f 21/5/2 20/6/2 7/7/2 12/8/2
f 17/9/3 19/10/3 6/11/3 2/12/3
f 10/13/4 12/14/4 7/15/4 3/16/4
f 18/17/5 20/18/5 8/19/5 4/20/5
f 11/21/6 9/22/6 4/23/6 8/24/6
f 5/25/6 1/26/6 9/22/6 11/21/6
f 2/12/4 6/27/4 12/14/4 10/13/4
f 21/28/5 12/6/5 16/29/5 24/30/5
f 17/31/1 2/32/1 10/2/1 22/1/1
f 23/8/2 24/16/2 16/17/2 14/5/2
f 12/14/4 6/27/4 14/33/4 16/34/4
f 5/25/6 11/21/6 15/35/6 13/36/6
f 19/10/3 5/37/3 13/38/3 23/39/3
f 6/11/3 19/10/3 23/39/3 14/40/3
f 24/41/4 23/42/4 31/43/4 32/44/4
f 1/45/1 17/31/1 22/1/1 9/46/1
f 29/47/2 30/48/2 32/49/2 31/50/2
f 3/16/5 7/15/5 20/18/5 18/17/5
f 1/16/3 5/37/3 19/10/3 17/9/3
f 20/51/4 21/26/4 28/52/4 27/53/4
f 9/46/1 22/1/1 18/4/1 4/23/1
f 25/42/2 26/41/2 27/48/2 28/47/2
f 15/54/5 24/30/5 32/55/5 30/56/5
f 8/19/5 20/18/5 27/57/5 26/58/5
f 11/21/6 8/24/6 26/59/6 25/60/6
f 21/28/5 24/30/5 15/54/5 11/61/5 25/62/5 28/63/5
f 23/39/3 13/38/3 29/3/3 31/64/3
f 13/36/6 15/35/6 30/65/6 29/66/6
